# Blender v2.92.0 OBJ File: ''
# www.blender.org
mtllib arena.mtl
o Cylinder
v 0.000000 -0.015338 -0.499238
v -0.000000 0.015338 -0.478390
v 0.070986 -0.015338 -0.489645
v 0.068021 0.015338 -0.469198
v 0.139243 -0.015338 -0.461236
v 0.133428 0.015338 -0.441975
v 0.202150 -0.015338 -0.415101
v 0.193708 0.015338 -0.397767
v 0.257288 -0.015338 -0.353015
v 0.246544 0.015338 -0.338273
v 0.302538 -0.015338 -0.277362
v 0.289905 0.015338 -0.265779
v 0.336163 -0.015338 -0.191050
v 0.322125 0.015338 -0.183072
v 0.356868 -0.015338 -0.097397
v 0.341966 0.015338 -0.093329
v 0.363860 -0.015338 -0.000000
v 0.348665 0.015338 -0.000000
v 0.356868 -0.015338 0.097396
v 0.341966 0.015338 0.093329
v 0.336163 -0.015338 0.191050
v 0.322125 0.015338 0.183072
v 0.302538 -0.015338 0.277362
v 0.289905 0.015338 0.265779
v 0.257288 -0.015338 0.353015
v 0.246544 0.015338 0.338273
v 0.202150 -0.015338 0.415101
v 0.193708 0.015338 0.397767
v 0.139243 -0.015338 0.461236
v 0.133428 0.015338 0.441975
v 0.070985 -0.015338 0.489645
v 0.068021 0.015338 0.469198
v -0.000000 -0.015338 0.499238
v -0.000000 0.015338 0.478390
v -0.070986 -0.015338 0.489645
v -0.068021 0.015338 0.469198
v -0.139243 -0.015338 0.461236
v -0.133429 0.015338 0.441975
v -0.202150 -0.015338 0.415101
v -0.193708 0.015338 0.397767
v -0.257288 -0.015338 0.353014
v -0.246544 0.015338 0.338273
v -0.302539 -0.015338 0.277361
v -0.289905 0.015338 0.265779
v -0.336163 -0.015338 0.191050
v -0.322125 0.015338 0.183072
v -0.356868 -0.015338 0.097396
v -0.341966 0.015338 0.093329
v -0.363860 -0.015338 -0.000000
v -0.348665 0.015338 -0.000000
v -0.356868 -0.015338 -0.097397
v -0.341966 0.015338 -0.093330
v -0.336163 -0.015338 -0.191051
v -0.322125 0.015338 -0.183073
v -0.302538 -0.015338 -0.277362
v -0.289904 0.015338 -0.265780
v -0.257287 -0.015338 -0.353015
v -0.246543 0.015338 -0.338273
v -0.202149 -0.015338 -0.415102
v -0.193708 0.015338 -0.397767
v -0.139243 -0.015338 -0.461236
v -0.133428 0.015338 -0.441975
v -0.070985 -0.015338 -0.489645
v -0.068021 0.015338 -0.469198
v 0.070986 0.015338 -0.489645
v 0.000000 0.015338 -0.499238
v 0.139243 0.015338 -0.461236
v 0.202150 0.015338 -0.415101
v 0.257288 0.015338 -0.353015
v 0.302538 0.015338 -0.277362
v 0.336163 0.015338 -0.191050
v 0.356868 0.015338 -0.097397
v 0.363860 0.015338 -0.000000
v 0.356868 0.015338 0.097396
v 0.336163 0.015338 0.191050
v 0.302538 0.015338 0.277362
v 0.257288 0.015338 0.353015
v 0.202150 0.015338 0.415101
v 0.139243 0.015338 0.461236
v 0.070985 0.015338 0.489645
v -0.000000 0.015338 0.499238
v -0.070986 0.015338 0.489645
v -0.139243 0.015338 0.461236
v -0.202150 0.015338 0.415101
v -0.257288 0.015338 0.353014
v -0.302539 0.015338 0.277361
v -0.336163 0.015338 0.191050
v -0.356868 0.015338 0.097396
v -0.363860 0.015338 -0.000000
v -0.356868 0.015338 -0.097397
v -0.336163 0.015338 -0.191051
v -0.302538 0.015338 -0.277362
v -0.257287 0.015338 -0.353015
v -0.202149 0.015338 -0.415102
v -0.139243 0.015338 -0.461236
v -0.070985 0.015338 -0.489645
v 0.070986 0.124514 -0.489645
v 0.000000 0.124514 -0.499238
v 0.139243 0.124514 -0.461236
v 0.202150 0.124514 -0.415101
v 0.257288 0.124514 -0.353015
v 0.302538 0.124514 -0.277362
v 0.336163 0.124514 -0.191050
v 0.356868 0.124514 -0.097397
v 0.363860 0.124514 -0.000000
v 0.356868 0.124514 0.097396
v 0.336163 0.124514 0.191050
v 0.302538 0.124514 0.277362
v 0.257288 0.124514 0.353015
v 0.202150 0.124514 0.415101
v 0.139243 0.124514 0.461236
v 0.070985 0.124514 0.489645
v -0.000000 0.124514 0.499238
v -0.070986 0.124514 0.489645
v -0.139243 0.124514 0.461236
v -0.202150 0.124514 0.415101
v -0.257288 0.124514 0.353014
v -0.302539 0.124514 0.277361
v -0.336163 0.124514 0.191050
v -0.356868 0.124514 0.097396
v -0.363860 0.124514 -0.000000
v -0.356868 0.124514 -0.097397
v -0.336163 0.124514 -0.191051
v -0.302538 0.124514 -0.277362
v -0.257287 0.124514 -0.353015
v -0.202149 0.124514 -0.415102
v -0.139243 0.124514 -0.461236
v -0.070985 0.124514 -0.489645
v 0.068021 0.124514 -0.469198
v -0.000000 0.124514 -0.478390
v 0.133428 0.124514 -0.441975
v 0.193708 0.124514 -0.397767
v 0.246544 0.124514 -0.338273
v 0.289905 0.124514 -0.265779
v 0.322125 0.124514 -0.183072
v 0.341966 0.124514 -0.093329
v 0.348665 0.124514 -0.000000
v 0.341966 0.124514 0.093329
v 0.322125 0.124514 0.183072
v 0.289905 0.124514 0.265779
v 0.246544 0.124514 0.338273
v 0.193708 0.124514 0.397767
v 0.133428 0.124514 0.441975
v 0.068021 0.124514 0.469198
v -0.000000 0.124514 0.478390
v -0.068021 0.124514 0.469198
v -0.133429 0.124514 0.441975
v -0.193708 0.124514 0.397767
v -0.246544 0.124514 0.338273
v -0.289905 0.124514 0.265779
v -0.322125 0.124514 0.183072
v -0.341966 0.124514 0.093329
v -0.348665 0.124514 -0.000000
v -0.341966 0.124514 -0.093330
v -0.322125 0.124514 -0.183073
v -0.289904 0.124514 -0.265780
v -0.246543 0.124514 -0.338273
v -0.193708 0.124514 -0.397767
v -0.133428 0.124514 -0.441975
v -0.068021 0.124514 -0.469198
vt 1.000000 0.500000
vt 1.000000 1.000000
vt 0.968750 1.000000
vt 0.968750 0.500000
vt 0.937500 1.000000
vt 0.937500 0.500000
vt 0.906250 1.000000
vt 0.906250 0.500000
vt 0.875000 1.000000
vt 0.875000 0.500000
vt 0.843750 1.000000
vt 0.843750 0.500000
vt 0.812500 1.000000
vt 0.812500 0.500000
vt 0.781250 1.000000
vt 0.781250 0.500000
vt 0.750000 1.000000
vt 0.750000 0.500000
vt 0.718750 1.000000
vt 0.718750 0.500000
vt 0.687500 1.000000
vt 0.687500 0.500000
vt 0.656250 1.000000
vt 0.656250 0.500000
vt 0.625000 1.000000
vt 0.625000 0.500000
vt 0.593750 1.000000
vt 0.593750 0.500000
vt 0.562500 1.000000
vt 0.562500 0.500000
vt 0.531250 1.000000
vt 0.531250 0.500000
vt 0.500000 1.000000
vt 0.500000 0.500000
vt 0.468750 1.000000
vt 0.468750 0.500000
vt 0.437500 1.000000
vt 0.437500 0.500000
vt 0.406250 1.000000
vt 0.406250 0.500000
vt 0.375000 1.000000
vt 0.375000 0.500000
vt 0.343750 1.000000
vt 0.343750 0.500000
vt 0.312500 1.000000
vt 0.312500 0.500000
vt 0.281250 1.000000
vt 0.281250 0.500000
vt 0.250000 1.000000
vt 0.250000 0.500000
vt 0.218750 1.000000
vt 0.218750 0.500000
vt 0.187500 1.000000
vt 0.187500 0.500000
vt 0.156250 1.000000
vt 0.156250 0.500000
vt 0.125000 1.000000
vt 0.125000 0.500000
vt 0.093750 1.000000
vt 0.093750 0.500000
vt 0.062500 1.000000
vt 0.062500 0.500000
vt 0.294867 0.475559
vt 0.250000 0.479978
vt 0.205134 0.475559
vt 0.161992 0.462472
vt 0.122232 0.441220
vt 0.087381 0.412619
vt 0.058781 0.377769
vt 0.037528 0.338009
vt 0.024441 0.294867
vt 0.020022 0.250000
vt 0.024441 0.205134
vt 0.037528 0.161992
vt 0.058780 0.122231
vt 0.087381 0.087381
vt 0.122231 0.058781
vt 0.161991 0.037528
vt 0.205134 0.024441
vt 0.250000 0.020022
vt 0.294866 0.024441
vt 0.338009 0.037528
vt 0.377769 0.058780
vt 0.412619 0.087381
vt 0.441220 0.122231
vt 0.462472 0.161991
vt 0.475559 0.205134
vt 0.479978 0.250000
vt 0.475559 0.294867
vt 0.462472 0.338009
vt 0.441220 0.377769
vt 0.412619 0.412619
vt 0.377769 0.441220
vt 0.338009 0.462472
vt 0.031250 1.000000
vt 0.031250 0.500000
vt 0.000000 1.000000
vt 0.000000 0.500000
vt 0.750000 0.490000
vt 0.796822 0.485388
vt 0.841844 0.471731
vt 0.883337 0.449553
vt 0.919706 0.419706
vt 0.949553 0.383337
vt 0.971731 0.341844
vt 0.985388 0.296822
vt 0.990000 0.250000
vt 0.985389 0.203178
vt 0.971731 0.158156
vt 0.949553 0.116663
vt 0.919706 0.080294
vt 0.883337 0.050447
vt 0.841844 0.028269
vt 0.796822 0.014612
vt 0.750000 0.010000
vt 0.703178 0.014612
vt 0.658156 0.028269
vt 0.616663 0.050447
vt 0.580294 0.080294
vt 0.550447 0.116663
vt 0.528269 0.158156
vt 0.514611 0.203179
vt 0.510000 0.250000
vt 0.514612 0.296822
vt 0.528269 0.341844
vt 0.550447 0.383337
vt 0.580295 0.419706
vt 0.616663 0.449553
vt 0.658156 0.471731
vt 0.703179 0.485389
vt 0.058780 0.122231
vt 0.087381 0.087381
vt 0.906250 1.000000
vt 0.875000 1.000000
vt 0.093750 1.000000
vt 0.062500 1.000000
vt 0.122231 0.058781
vt 0.375000 1.000000
vt 0.343750 1.000000
vt 0.161991 0.037528
vt 0.656250 1.000000
vt 0.625000 1.000000
vt 0.205134 0.024441
vt 0.937500 1.000000
vt 0.125000 1.000000
vt 0.250000 0.020022
vt 0.406250 1.000000
vt 0.294866 0.024441
vt 0.687500 1.000000
vt 0.338009 0.037528
vt 0.968750 1.000000
vt 0.156250 1.000000
vt 0.377769 0.058780
vt 0.437500 1.000000
vt 0.412619 0.087381
vt 0.718750 1.000000
vt 0.441220 0.122231
vt 0.187500 1.000000
vt 0.462472 0.161991
vt 1.000000 1.000000
vt 0.468750 1.000000
vt 0.475559 0.205134
vt 0.750000 1.000000
vt 0.479978 0.250000
vt 0.218750 1.000000
vt 0.475559 0.294867
vt 0.500000 1.000000
vt 0.250000 0.479978
vt 0.294867 0.475559
vt 0.296822 0.485388
vt 0.250000 0.490000
vt 0.338009 0.462472
vt 0.341844 0.471731
vt 0.377769 0.441220
vt 0.383337 0.449553
vt 0.412619 0.412619
vt 0.419706 0.419706
vt 0.441220 0.377769
vt 0.449553 0.383337
vt 0.462472 0.338009
vt 0.471731 0.341844
vt 0.485388 0.296822
vt 0.490000 0.250000
vt 0.485388 0.203178
vt 0.471731 0.158156
vt 0.449553 0.116663
vt 0.419706 0.080294
vt 0.383337 0.050447
vt 0.341844 0.028269
vt 0.296822 0.014612
vt 0.250000 0.010000
vt 0.203178 0.014612
vt 0.158156 0.028269
vt 0.116663 0.050447
vt 0.080294 0.080294
vt 0.050447 0.116663
vt 0.037528 0.161992
vt 0.028269 0.158156
vt 0.024441 0.205134
vt 0.014611 0.203179
vt 0.020022 0.250000
vt 0.010000 0.250000
vt 0.024441 0.294867
vt 0.014612 0.296822
vt 0.037528 0.338009
vt 0.028269 0.341844
vt 0.058781 0.377769
vt 0.050447 0.383337
vt 0.087381 0.412619
vt 0.080295 0.419706
vt 0.122232 0.441220
vt 0.116663 0.449553
vt 0.161992 0.462472
vt 0.158156 0.471731
vt 0.205134 0.475559
vt 0.203179 0.485389
vt 0.593750 1.000000
vt 0.312500 1.000000
vt 0.031250 1.000000
vt 0.843750 1.000000
vt 0.562500 1.000000
vt 0.281250 1.000000
vt 0.000000 1.000000
vt 0.812500 1.000000
vt 0.531250 1.000000
vt 0.250000 1.000000
vt 0.781250 1.000000
vn 0.1339 0.0000 -0.9910
vn 0.3843 0.0000 -0.9232
vn 0.5914 0.0000 -0.8064
vn 0.7477 0.0000 -0.6640
vn 0.8582 0.0000 -0.5133
vn 0.9318 0.0000 -0.3630
vn 0.9764 0.0000 -0.2159
vn 0.9974 0.0000 -0.0716
vn 0.9974 0.0000 0.0716
vn 0.9764 0.0000 0.2159
vn 0.9318 0.0000 0.3630
vn 0.8582 0.0000 0.5133
vn 0.7477 0.0000 0.6640
vn 0.5914 0.0000 0.8064
vn 0.3843 0.0000 0.9232
vn 0.1339 0.0000 0.9910
vn -0.1339 0.0000 0.9910
vn -0.3843 0.0000 0.9232
vn -0.5914 0.0000 0.8064
vn -0.7477 0.0000 0.6640
vn -0.8582 0.0000 0.5133
vn -0.9318 0.0000 0.3630
vn -0.9764 0.0000 0.2159
vn -0.9974 0.0000 0.0716
vn -0.9974 0.0000 -0.0716
vn -0.9764 0.0000 -0.2159
vn -0.9318 0.0000 -0.3630
vn -0.8582 0.0000 -0.5133
vn -0.7477 0.0000 -0.6640
vn -0.5914 0.0000 -0.8064
vn 0.0000 1.0000 -0.0000
vn -0.3843 0.0000 -0.9232
vn -0.1339 0.0000 -0.9910
vn 0.0000 -1.0000 0.0000
usemtl None
s off
f 1/1/1 66/2/1 65/3/1 3/4/1
f 3/4/2 65/3/2 67/5/2 5/6/2
f 5/6/3 67/5/3 68/7/3 7/8/3
f 7/8/4 68/7/4 69/9/4 9/10/4
f 9/10/5 69/9/5 70/11/5 11/12/5
f 11/12/6 70/11/6 71/13/6 13/14/6
f 13/14/7 71/13/7 72/15/7 15/16/7
f 15/16/8 72/15/8 73/17/8 17/18/8
f 17/18/9 73/17/9 74/19/9 19/20/9
f 19/20/10 74/19/10 75/21/10 21/22/10
f 21/22/11 75/21/11 76/23/11 23/24/11
f 23/24/12 76/23/12 77/25/12 25/26/12
f 25/26/13 77/25/13 78/27/13 27/28/13
f 27/28/14 78/27/14 79/29/14 29/30/14
f 29/30/15 79/29/15 80/31/15 31/32/15
f 31/32/16 80/31/16 81/33/16 33/34/16
f 33/34/17 81/33/17 82/35/17 35/36/17
f 35/36/18 82/35/18 83/37/18 37/38/18
f 37/38/19 83/37/19 84/39/19 39/40/19
f 39/40/20 84/39/20 85/41/20 41/42/20
f 41/42/21 85/41/21 86/43/21 43/44/21
f 43/44/22 86/43/22 87/45/22 45/46/22
f 45/46/23 87/45/23 88/47/23 47/48/23
f 47/48/24 88/47/24 89/49/24 49/50/24
f 49/50/25 89/49/25 90/51/25 51/52/25
f 51/52/26 90/51/26 91/53/26 53/54/26
f 53/54/27 91/53/27 92/55/27 55/56/27
f 55/56/28 92/55/28 93/57/28 57/58/28
f 57/58/29 93/57/29 94/59/29 59/60/29
f 59/60/30 94/59/30 95/61/30 61/62/30
f 4/63/31 2/64/31 64/65/31 62/66/31 60/67/31 58/68/31 56/69/31 54/70/31 52/71/31 50/72/31 48/73/31 46/74/31 44/75/31 42/76/31 40/77/31 38/78/31 36/79/31 34/80/31 32/81/31 30/82/31 28/83/31 26/84/31 24/85/31 22/86/31 20/87/31 18/88/31 16/89/31 14/90/31 12/91/31 10/92/31 8/93/31 6/94/31
f 61/62/32 95/61/32 96/95/32 63/96/32
f 63/96/33 96/95/33 66/97/33 1/98/33
f 1/99/34 3/100/34 5/101/34 7/102/34 9/103/34 11/104/34 13/105/34 15/106/34 17/107/34 19/108/34 21/109/34 23/110/34 25/111/34 27/112/34 29/113/34 31/114/34 33/115/34 35/116/34 37/117/34 39/118/34 41/119/34 43/120/34 45/121/34 47/122/34 49/123/34 51/124/34 53/125/34 55/126/34 57/127/34 59/128/34 61/129/34 63/130/34
f 42/76/5 44/75/5 150/131/5 149/132/5
f 69/9/4 68/7/4 100/133/4 101/134/4
f 95/61/30 94/59/30 126/135/30 127/136/30
f 40/77/4 42/76/4 149/132/4 148/137/4
f 86/43/21 85/41/21 117/138/21 118/139/21
f 38/78/3 40/77/3 148/137/3 147/140/3
f 77/25/12 76/23/12 108/141/12 109/142/12
f 36/79/2 38/78/2 147/140/2 146/143/2
f 68/7/3 67/5/3 99/144/3 100/133/3
f 94/59/29 93/57/29 125/145/29 126/135/29
f 34/80/1 36/79/1 146/143/1 145/146/1
f 85/41/20 84/39/20 116/147/20 117/138/20
f 32/81/33 34/80/33 145/146/33 144/148/33
f 76/23/11 75/21/11 107/149/11 108/141/11
f 30/82/32 32/81/32 144/148/32 143/150/32
f 67/5/2 65/3/2 97/151/2 99/144/2
f 93/57/28 92/55/28 124/152/28 125/145/28
f 28/83/30 30/82/30 143/150/30 142/153/30
f 84/39/19 83/37/19 115/154/19 116/147/19
f 26/84/29 28/83/29 142/153/29 141/155/29
f 75/21/10 74/19/10 106/156/10 107/149/10
f 24/85/28 26/84/28 141/155/28 140/157/28
f 92/55/27 91/53/27 123/158/27 124/152/27
f 22/86/27 24/85/27 140/157/27 139/159/27
f 65/3/1 66/2/1 98/160/1 97/151/1
f 83/37/18 82/35/18 114/161/18 115/154/18
f 20/87/26 22/86/26 139/159/26 138/162/26
f 74/19/9 73/17/9 105/163/9 106/156/9
f 18/88/25 20/87/25 138/162/25 137/164/25
f 91/53/26 90/51/26 122/165/26 123/158/26
f 16/89/24 18/88/24 137/164/24 136/166/24
f 82/35/17 81/33/17 113/167/17 114/161/17
f 130/168/31 129/169/31 97/170/31 98/171/31
f 129/169/31 131/172/31 99/173/31 97/170/31
f 131/172/31 132/174/31 100/175/31 99/173/31
f 132/174/31 133/176/31 101/177/31 100/175/31
f 133/176/31 134/178/31 102/179/31 101/177/31
f 134/178/31 135/180/31 103/181/31 102/179/31
f 135/180/31 136/166/31 104/182/31 103/181/31
f 136/166/31 137/164/31 105/183/31 104/182/31
f 137/164/31 138/162/31 106/184/31 105/183/31
f 138/162/31 139/159/31 107/185/31 106/184/31
f 139/159/31 140/157/31 108/186/31 107/185/31
f 140/157/31 141/155/31 109/187/31 108/186/31
f 141/155/31 142/153/31 110/188/31 109/187/31
f 142/153/31 143/150/31 111/189/31 110/188/31
f 143/150/31 144/148/31 112/190/31 111/189/31
f 144/148/31 145/146/31 113/191/31 112/190/31
f 145/146/31 146/143/31 114/192/31 113/191/31
f 146/143/31 147/140/31 115/193/31 114/192/31
f 147/140/31 148/137/31 116/194/31 115/193/31
f 148/137/31 149/132/31 117/195/31 116/194/31
f 149/132/31 150/131/31 118/196/31 117/195/31
f 150/131/31 151/197/31 119/198/31 118/196/31
f 151/197/31 152/199/31 120/200/31 119/198/31
f 152/199/31 153/201/31 121/202/31 120/200/31
f 153/201/31 154/203/31 122/204/31 121/202/31
f 154/203/31 155/205/31 123/206/31 122/204/31
f 155/205/31 156/207/31 124/208/31 123/206/31
f 156/207/31 157/209/31 125/210/31 124/208/31
f 157/209/31 158/211/31 126/212/31 125/210/31
f 158/211/31 159/213/31 127/214/31 126/212/31
f 159/213/31 160/215/31 128/216/31 127/214/31
f 160/215/31 130/168/31 98/171/31 128/216/31
f 78/27/13 77/25/13 109/142/13 110/217/13
f 44/75/6 46/74/6 151/197/6 150/131/6
f 87/45/22 86/43/22 118/139/22 119/218/22
f 46/74/7 48/73/7 152/199/7 151/197/7
f 96/95/32 95/61/32 127/136/32 128/219/32
f 70/11/5 69/9/5 101/134/5 102/220/5
f 48/73/8 50/72/8 153/201/8 152/199/8
f 79/29/14 78/27/14 110/217/14 111/221/14
f 50/72/9 52/71/9 154/203/9 153/201/9
f 88/47/23 87/45/23 119/218/23 120/222/23
f 52/71/10 54/70/10 155/205/10 154/203/10
f 66/97/33 96/95/33 128/219/33 98/223/33
f 71/13/6 70/11/6 102/220/6 103/224/6
f 54/70/11 56/69/11 156/207/11 155/205/11
f 2/64/17 4/63/17 129/169/17 130/168/17
f 80/31/15 79/29/15 111/221/15 112/225/15
f 56/69/12 58/68/12 157/209/12 156/207/12
f 4/63/18 6/94/18 131/172/18 129/169/18
f 89/49/24 88/47/24 120/222/24 121/226/24
f 58/68/13 60/67/13 158/211/13 157/209/13
f 6/94/19 8/93/19 132/174/19 131/172/19
f 72/15/7 71/13/7 103/224/7 104/227/7
f 60/67/14 62/66/14 159/213/14 158/211/14
f 8/93/20 10/92/20 133/176/20 132/174/20
f 81/33/16 80/31/16 112/225/16 113/167/16
f 62/66/15 64/65/15 160/215/15 159/213/15
f 10/92/21 12/91/21 134/178/21 133/176/21
f 90/51/25 89/49/25 121/226/25 122/165/25
f 64/65/16 2/64/16 130/168/16 160/215/16
f 12/91/22 14/90/22 135/180/22 134/178/22
f 73/17/8 72/15/8 104/227/8 105/163/8
f 14/90/23 16/89/23 136/166/23 135/180/23
